<svg viewBox="0 0 64 64" xmlns="http://www.w3.org/2000/svg">
  <defs>
    <linearGradient id="rbz-bg" x1="0" y1="0" x2="1" y2="1">
      <stop offset="0" stop-color="#0f6249"/>
      <stop offset="1" stop-color="#052e23"/>
    </linearGradient>
    <linearGradient id="rbz-gold" x1="0" y1="0" x2="0" y2="1">
      <stop offset="0" stop-color="#e8cf85"/>
      <stop offset="1" stop-color="#c39a33"/>
    </linearGradient>
  </defs>
  <rect width="64" height="64" rx="14" fill="url(#rbz-bg)"/>
  <rect x="1.5" y="1.5" width="61" height="61" rx="12.5" fill="none" stroke="#e8cf85" stroke-opacity="0.35" stroke-width="1.5"/>
  <path d="M32 7 C 26 15, 11 26, 11 37 C 11 45, 18 49.5, 24.5 47.5 C 27.5 46.5, 29.5 44.5, 30.5 42 C 30 49, 27 54, 22.5 56.5 L 41.5 56.5 C 37 54, 34 49, 33.5 42 C 34.5 44.5, 36.5 46.5, 39.5 47.5 C 46 49.5, 53 45, 53 37 C 53 26, 38 15, 32 7 Z" fill="url(#rbz-gold)"/>
</svg>
